<?xml version="1.0" encoding="UTF-8" standalone="no"?>
<!-- Created with Inkscape (http://www.inkscape.org/) -->

<svg
   version="1.1"
   id="svg884"
   width="500"
   height="500"
   viewBox="0 0 500 500"
   sodipodi:docname="about.svg"
   inkscape:version="1.2.2 (732a01da63, 2022-12-09)"
   xmlns:inkscape="http://www.inkscape.org/namespaces/inkscape"
   xmlns:sodipodi="http://sodipodi.sourceforge.net/DTD/sodipodi-0.dtd"
   xmlns="http://www.w3.org/2000/svg"
   xmlns:svg="http://www.w3.org/2000/svg">
  <defs
     id="defs888" />
  <sodipodi:namedview
     id="namedview886"
     pagecolor="#ffffff"
     bordercolor="#000000"
     borderopacity="0.25"
     inkscape:showpageshadow="2"
     inkscape:pageopacity="0.0"
     inkscape:pagecheckerboard="0"
     inkscape:deskcolor="#d1d1d1"
     showgrid="false"
     inkscape:zoom="1.034"
     inkscape:cx="235.49323"
     inkscape:cy="250.48356"
     inkscape:window-width="1366"
     inkscape:window-height="697"
     inkscape:window-x="-8"
     inkscape:window-y="-8"
     inkscape:window-maximized="1"
     inkscape:current-layer="g890" />
  <g
     inkscape:groupmode="layer"
     inkscape:label="Image"
     id="g890">
    <path
       style="fill:#ff7f2a;fill-opacity:1"
       d="M 218.46713,419.91847 C 201.61333,417.94848 174.3811,407.22895 156.22726,395.41875 101.84499,360.03972 71.080564,295.79996 78.066861,232.21059 87.024998,150.6735 149.20326,89.559944 233,79.930434 c 13.63851,-1.567271 37.32138,-0.61008 50.5,2.041058 58.73695,11.81609 108.22858,55.224618 127.03222,111.418488 6.58706,19.68514 9.4199,38.53117 9.44826,62.85634 0.0162,13.91088 -0.38655,18.6635 -2.37876,28.06937 -11.35678,53.61894 -40.72506,92.71876 -88.68675,118.07417 -20.12232,10.63786 -35.66523,15.23324 -59.33865,17.54392 -12.45147,1.21534 -40.65294,1.2069 -51.10919,-0.0153 z m 35.91903,-65.33417 c 6.24392,-1.87915 10.96201,-5.61906 14.34154,-11.36819 2.37311,-4.03703 2.76896,-5.79605 2.74912,-12.21611 -0.0263,-8.50033 -1.97459,-13.26946 -7.63919,-18.69932 -4.69292,-4.49844 -9.96181,-6.42568 -17.56721,-6.42568 -7.89064,0 -15.93341,3.50553 -19.86303,8.65752 -5.43472,7.12529 -6.87925,18.61889 -3.32648,26.46748 5.54457,12.24875 17.91162,17.61519 31.30525,13.5843 z m 12.75965,-74.37566 c 1.42267,-11.65641 5.77441,-17.83045 20.15116,-28.58945 C 310.69475,234.10921 318,222.17741 318,201.4714 c 0,-14.38254 -5.26331,-26.74659 -15.43733,-36.26389 -21.00823,-19.65218 -60.01429,-25.04777 -87.3089,-12.07719 -11.57078,5.4985 -23.44934,18.75823 -28.21503,31.49568 -2.79636,7.47393 -4.43295,18.25954 -3.60672,23.76925 L 184.12255,213 h 18.70206 18.70206 l 2.91494,-8.58534 c 4.09951,-12.0742 7.19066,-16.55419 13.6396,-19.76784 C 242.32735,182.53088 244.81823,182 250.5,182 c 13.56877,0 22.42702,7.27768 23.30697,19.14832 0.36587,4.93566 -0.006,6.44636 -2.94413,11.97326 -4.51401,8.4901 -12.76855,17.09885 -25.66869,26.77015 -15.65451,11.73627 -19.10318,18.07002 -19.1615,35.1916 -0.018,5.27084 0.27658,9.89257 0.65453,10.27052 0.37795,0.37795 9.49045,0.56545 20.25,0.41667 L 266.5,285.5 Z"
       id="path1374" />
  </g>
</svg>
