<?xml version="1.0" encoding="UTF-8" standalone="no"?>
<!-- Created with Inkscape (http://www.inkscape.org/) -->

<svg
   version="1.1"
   id="svg1386"
   width="500"
   height="500"
   viewBox="0 0 500 500"
   sodipodi:docname="add-expenses.svg"
   inkscape:version="1.2.2 (732a01da63, 2022-12-09)"
   xmlns:inkscape="http://www.inkscape.org/namespaces/inkscape"
   xmlns:sodipodi="http://sodipodi.sourceforge.net/DTD/sodipodi-0.dtd"
   xmlns="http://www.w3.org/2000/svg"
   xmlns:svg="http://www.w3.org/2000/svg">
  <defs
     id="defs1390" />
  <sodipodi:namedview
     id="namedview1388"
     pagecolor="#ffffff"
     bordercolor="#000000"
     borderopacity="0.25"
     inkscape:showpageshadow="2"
     inkscape:pageopacity="0.0"
     inkscape:pagecheckerboard="0"
     inkscape:deskcolor="#d1d1d1"
     showgrid="false"
     inkscape:zoom="1.034"
     inkscape:cx="235.49323"
     inkscape:cy="250.48356"
     inkscape:window-width="1366"
     inkscape:window-height="697"
     inkscape:window-x="-8"
     inkscape:window-y="-8"
     inkscape:window-maximized="1"
     inkscape:current-layer="g1392" />
  <g
     inkscape:groupmode="layer"
     inkscape:label="Image"
     id="g1392">
    <g
       id="g1876"
       style="fill:#ff7f2a">
      <path
         style="fill:#ff7f2a;fill-opacity:1"
         d="m 247.75,19.337719 c 0.6875,-0.277412 1.8125,-0.277412 2.5,0 0.6875,0.277413 0.125,0.504386 -1.25,0.504386 -1.375,0 -1.9375,-0.226973 -1.25,-0.504386 z m 17,0 c 0.6875,-0.277412 1.8125,-0.277412 2.5,0 0.6875,0.277413 0.125,0.504386 -1.25,0.504386 -1.375,0 -1.9375,-0.226973 -1.25,-0.504386 z"
         id="path1890" />
      <path
         style="fill:#ff7f2a;fill-opacity:1"
         d="m 251.75,19.337719 c 0.6875,-0.277412 1.8125,-0.277412 2.5,0 0.6875,0.277413 0.125,0.504386 -1.25,0.504386 -1.375,0 -1.9375,-0.226973 -1.25,-0.504386 z m 9,0 c 0.6875,-0.277412 1.8125,-0.277412 2.5,0 0.6875,0.277413 0.125,0.504386 -1.25,0.504386 -1.375,0 -1.9375,-0.226973 -1.25,-0.504386 z"
         id="path1888" />
      <path
         style="fill:#ff7f2a;fill-opacity:1"
         d="m 255.25,369.31067 c 0.9625,-0.25152 2.5375,-0.25152 3.5,0 0.9625,0.25153 0.175,0.45733 -1.75,0.45733 -1.925,0 -2.7125,-0.2058 -1.75,-0.45733 z m -74,-140.05915 c 9.7625,-0.16372 25.7375,-0.16372 35.5,0 9.7625,0.16372 1.775,0.29768 -17.75,0.29768 -19.525,0 -27.5125,-0.13396 -17.75,-0.29768 z m 117,0 c 9.7625,-0.16372 25.7375,-0.16372 35.5,0 9.7625,0.16372 1.775,0.29768 -17.75,0.29768 -19.525,0 -27.5125,-0.13396 -17.75,-0.29768 z M 256.26903,19.307009 c 0.97297,-0.253543 2.32297,-0.236869 3,0.03705 0.67703,0.273923 -0.11903,0.481368 -1.76903,0.460988 -1.65,-0.02038 -2.20394,-0.244498 -1.23097,-0.498042 z"
         id="path1886" />
      <path
         style="fill:#ff7f2a;fill-opacity:1"
         d="m 490.15789,261 c 0,-1.375 0.22698,-1.9375 0.50439,-1.25 0.27741,0.6875 0.27741,1.8125 0,2.5 -0.27741,0.6875 -0.50439,0.125 -0.50439,-1.25 z m -0.0789,-13.58333 c 0.048,-1.16495 0.28494,-1.4019 0.60416,-0.60417 0.28887,0.72187 0.25335,1.58437 -0.0789,1.91667 -0.33229,0.33229 -0.56864,-0.25834 -0.52522,-1.3125 z"
         id="path1884" />
      <path
         style="fill:#ff7f2a;fill-opacity:1"
         d="m 421,418.62244 c 0,-0.20765 0.7875,-0.99515 1.75,-1.75 1.58606,-1.24387 1.62143,-1.2085 0.37756,0.37756 C 421.82119,418.91575 421,419.44548 421,418.62244 Z M 24.157895,261 c 0,-1.375 0.226973,-1.9375 0.504386,-1.25 0.277412,0.6875 0.277412,1.8125 0,2.5 -0.277413,0.6875 -0.504386,0.125 -0.504386,-1.25 z m 465.921055,-3.58333 c 0.048,-1.16495 0.28494,-1.4019 0.60416,-0.60417 0.28887,0.72187 0.25335,1.58438 -0.0789,1.91667 -0.33229,0.33229 -0.56864,-0.25834 -0.52522,-1.3125 z"
         id="path1882" />
      <path
         style="fill:#ff7f2a;fill-opacity:1"
         d="m 91.872445,417.25 c -1.243871,-1.58606 -1.208501,-1.62143 0.377555,-0.37756 0.9625,0.75485 1.75,1.54235 1.75,1.75 0,0.82304 -0.821186,0.29331 -2.127555,-1.37244 z M 181.25,276.25152 c 9.7625,-0.16372 25.7375,-0.16372 35.5,0 9.7625,0.16372 1.775,0.29768 -17.75,0.29768 -19.525,0 -27.5125,-0.13396 -17.75,-0.29768 z m 117,0 c 9.7625,-0.16372 25.7375,-0.16372 35.5,0 9.7625,0.16372 1.775,0.29768 -17.75,0.29768 -19.525,0 -27.5125,-0.13396 -17.75,-0.29768 z M 24.078947,257.41667 c 0.04798,-1.16495 0.284941,-1.4019 0.604167,-0.60417 0.288871,0.72187 0.253344,1.58438 -0.07895,1.91667 -0.332292,0.33229 -0.568641,-0.25834 -0.52522,-1.3125 z M 490.19495,253.5 c 0.0204,-1.65 0.2445,-2.20394 0.49804,-1.23097 0.25354,0.97297 0.23687,2.32297 -0.0371,3 -0.27393,0.67703 -0.48137,-0.11903 -0.46099,-1.76903 z M 24.232003,245 c 0,-1.925 0.205795,-2.7125 0.457323,-1.75 0.251527,0.9625 0.251527,2.5375 0,3.5 -0.251528,0.9625 -0.457323,0.175 -0.457323,-1.75 z M 421.40499,87.75 419.5,85.5 l 2.25,1.904988 C 423.86444,89.195206 424.45524,90 423.65499,90 c -0.18976,0 -1.20226,-1.0125 -2.25,-2.25 z"
         id="path1880" />
      <path
         style="fill:#ff7f2a;fill-opacity:1"
         d="m 242,485.30502 c -9.79355,-0.57874 -27.21078,-3.35417 -39.5,-6.29433 -33.18389,-7.93913 -65.29939,-23.82473 -92,-45.50685 C 52.440211,386.35664 20.361962,313.23976 25.029095,238.68753 28.464873,183.80483 49.400053,135.26405 87.674146,93.4373 124.26348,53.451694 179.00092,26.456136 234.42368,21.062977 c 90.17304,-8.77469 176.98701,35.383197 223.68519,113.777373 15.93829,26.75626 27.35749,61.33248 30.83661,93.37024 1.34404,12.37666 1.35962,39.82118 0.0289,50.81564 C 484.6965,314.36898 472.22962,349.23482 453.22705,379 436.80372,404.72511 408.69497,432.80132 382.97449,449.17124 341.89308,475.31766 291.51262,488.2309 242,485.30502 Z m 23.13076,-116.83391 c 2.46787,-0.84089 6.17814,-3.17145 8.24503,-5.17902 7.3426,-7.13184 7.09118,-5.50588 7.41848,-47.97671 l 0.29427,-38.18462 37.20573,-0.31664 c 41.17986,-0.35046 41.49714,-0.39693 48.57784,-7.1148 13.22439,-12.54675 7.20953,-35.11052 -10.56493,-39.6326 C 353.72523,229.40983 338.47047,229 316.60168,229 H 281.089 L 280.7945,190.75 280.5,152.5 277.66237,147.6724 C 268.34589,131.82248 245.0523,132.53811 236.75,148.92931 L 234,154.35863 V 191.67931 229 l -35.75,0.0239 c -19.6625,0.0131 -37.51684,0.43362 -39.6763,0.93445 -5.98138,1.38721 -11.71947,5.9523 -14.9044,11.8576 -6.63109,12.29492 -1.35875,26.9488 11.8307,32.88215 3.57479,1.60814 7.95976,1.83311 41.25,2.11631 l 37.25,0.31688 v 37.23803 37.23803 l 2.60338,5.22431 c 5.34835,10.73274 17.10755,15.53062 28.52738,11.63949 z"
         id="path1878" />
    </g>
  </g>
</svg>
