<?xml version="1.0" encoding="UTF-8" standalone="no"?>
<!-- Created with Inkscape (http://www.inkscape.org/) -->

<svg
   version="1.1"
   id="svg2"
   width="500"
   height="500"
   viewBox="0 0 500 500"
   sodipodi:docname="back.svg"
   inkscape:version="1.2.2 (732a01da63, 2022-12-09)"
   xmlns:inkscape="http://www.inkscape.org/namespaces/inkscape"
   xmlns:sodipodi="http://sodipodi.sourceforge.net/DTD/sodipodi-0.dtd"
   xmlns="http://www.w3.org/2000/svg"
   xmlns:svg="http://www.w3.org/2000/svg">
  <defs
     id="defs6" />
  <sodipodi:namedview
     id="namedview4"
     pagecolor="#ffffff"
     bordercolor="#000000"
     borderopacity="0.25"
     inkscape:showpageshadow="2"
     inkscape:pageopacity="0.0"
     inkscape:pagecheckerboard="0"
     inkscape:deskcolor="#d1d1d1"
     showgrid="false"
     inkscape:zoom="1.034"
     inkscape:cx="235.49323"
     inkscape:cy="250.48356"
     inkscape:window-width="1366"
     inkscape:window-height="697"
     inkscape:window-x="-8"
     inkscape:window-y="-8"
     inkscape:window-maximized="1"
     inkscape:current-layer="g8" />
  <g
     inkscape:groupmode="layer"
     inkscape:label="Image"
     id="g8">
    <g
       id="g847"
       style="fill:#ff6600">
      <path
         style="fill:black;fill-opacity:1"
         d="m 232,399.62244 c 0,-0.20765 0.7875,-0.99515 1.75,-1.75 1.58606,-1.24387 1.62143,-1.2085 0.37756,0.37756 C 232.82119,399.91575 232,400.44548 232,399.62244 Z"
         id="path861" />
      <path
         style="fill:black;fill-opacity:1"
         d="M 200.48295,406.75 189.5,395.5 l 11.25,10.98295 c 6.1875,6.04062 11.25,11.10312 11.25,11.25 0,0.72114 -1.31566,-0.53351 -11.51705,-10.98295 z M 201,98.5 c 5.20327,-5.225 9.6855,-9.5 9.9605,-9.5 0.275,0 -3.75723,4.275 -8.9605,9.5 -5.20327,5.225 -9.6855,9.5 -9.9605,9.5 -0.275,0 3.75723,-4.275 8.9605,-9.5 z"
         id="path859" />
      <path
         style="fill:black;fill-opacity:1"
         d="M 173.98499,380.25 161.5,367.5 l 12.75,12.48499 c 7.0125,6.86675 12.75,12.60425 12.75,12.75 0,0.71844 -1.41773,-0.64155 -13.01501,-12.48499 z M 187.5,112 c 2.14824,-2.2 4.1309,-4 4.4059,-4 0.275,0 -1.25766,1.8 -3.4059,4 -2.14824,2.2 -4.1309,4 -4.4059,4 -0.275,0 1.25766,-1.8 3.4059,-4 z"
         id="path857" />
      <path
         style="fill:black;fill-opacity:1"
         d="M 125.99472,332.25 90.5,296.5 126.25,331.99472 C 159.47599,364.98345 162.44977,368 161.74472,368 c -0.14041,0 -16.22791,-16.0875 -35.75,-35.75 z M 174,125.5 c 5.20327,-5.225 9.6855,-9.5 9.9605,-9.5 0.275,0 -3.75723,4.275 -8.9605,9.5 -5.20327,5.225 -9.6855,9.5 -9.9605,9.5 -0.275,0 3.75723,-4.275 8.9605,-9.5 z"
         id="path855" />
      <path
         style="fill:black;fill-opacity:1"
         d="M 68.491476,274.75 46.5,252.5 68.75,274.49148 C 89.424478,294.92574 91.451093,297 90.741476,297 c -0.142188,0 -10.154688,-10.0125 -22.25,-22.25 z M 151.5,148 c 7.13413,-7.15 13.19614,-13 13.47114,-13 0.275,0 -5.33701,5.85 -12.47114,13 -7.13413,7.15 -13.19614,13 -13.47114,13 -0.275,0 5.33701,-5.85 12.47114,-13 z"
         id="path853" />
      <path
         style="fill:black;fill-opacity:1"
         d="m 216,414.62244 c 0,-0.20765 0.7875,-0.99515 1.75,-1.75 1.58606,-1.24387 1.62143,-1.2085 0.37756,0.37756 C 216.82119,414.91575 216,415.44548 216,414.62244 Z M 144.99486,305.25 108.5,268.5 l 36.75,36.49486 c 20.2125,20.07218 36.75,36.60968 36.75,36.75 0,0.70484 -3.0865,-2.3391 -37.00514,-36.49486 z M 186.25,236.25009 c 42.2125,-0.14438 111.2875,-0.14438 153.5,0 42.2125,0.14438 7.675,0.26251 -76.75,0.26251 -84.425,0 -118.9625,-0.11813 -76.75,-0.26251 z M 124.98611,174.75 C 137.51383,161.97714 139,160.54694 139,161.26389 c 0,0.14515 -6.1875,6.33265 -13.75,13.75 L 111.5,188.5 Z"
         id="path851" />
      <path
         style="fill:black;fill-opacity:1"
         d="m 129.69995,335.19996 -82.75089,-82.75539 83.36463,-82.64923 83.36464,-82.649222 11.15451,11.186244 11.15451,11.186238 -62.99368,62.98773 C 138.34715,207.14957 110,235.83289 110,236.24702 110,236.66116 178.85,237 263,237 h 153 v 16 16 l -153.75,0.0504 -153.75,0.0504 63.79805,63.19956 63.79806,63.19957 -8.29806,8.0177 c -4.56393,4.40974 -9.88411,9.4622 -11.82263,11.22768 l -3.52458,3.20998 -82.75089,-82.7554 z M 95,252.44098 c 0,-0.85746 -0.45,-1.2809 -1,-0.94098 -0.55,0.33992 -1,1.04148 -1,1.55902 0,0.51754 0.45,0.94098 1,0.94098 0.55,0 1,-0.70156 1,-1.55902 z"
         id="path849" />
    </g>
  </g>
</svg>
