<?xml version="1.0" encoding="UTF-8" standalone="no"?>
<svg
   height="48"
   viewBox="0 -960 960 960"
   width="48"
   version="1.1"
   id="svg12639"
   sodipodi:docname="budget.svg"
   inkscape:version="1.2.2 (732a01da63, 2022-12-09)"
   xmlns:inkscape="http://www.inkscape.org/namespaces/inkscape"
   xmlns:sodipodi="http://sodipodi.sourceforge.net/DTD/sodipodi-0.dtd"
   xmlns="http://www.w3.org/2000/svg"
   xmlns:svg="http://www.w3.org/2000/svg">
  <defs
     id="defs12643" />
  <sodipodi:namedview
     id="namedview12641"
     pagecolor="#ffffff"
     bordercolor="#000000"
     borderopacity="0.25"
     inkscape:showpageshadow="2"
     inkscape:pageopacity="0.0"
     inkscape:pagecheckerboard="0"
     inkscape:deskcolor="#d1d1d1"
     showgrid="false"
     inkscape:zoom="10.770833"
     inkscape:cx="23.767892"
     inkscape:cy="24.046422"
     inkscape:window-width="1366"
     inkscape:window-height="697"
     inkscape:window-x="-8"
     inkscape:window-y="-8"
     inkscape:window-maximized="1"
     inkscape:current-layer="svg12639" />
  <path
     d="M652-416q25 0 44.5-19.5T716-481q0-25-19.5-44T652-544q-25 0-44.5 19T588-481q0 26 19.5 45.5T652-416ZM538-293q-34 0-54-20t-20-53v-227q0-34 20-53.5t54-19.5h269q34 0 54 19.5t20 53.5v227q0 33-20 53t-54 20H538ZM180-120q-23 0-41.5-18T120-180v-600q0-23 18.5-41.5T180-840h600q24 0 42 18.5t18 41.5v54H538q-58 0-96 38t-38 95v227q0 57 38 95t96 38h302v53q0 24-18 42t-42 18H180Z"
     id="path12637"
     style="fill:#ff6600" />
</svg>
