<?xml version="1.0" encoding="UTF-8" standalone="no"?>
<svg
   height="48"
   viewBox="0 -960 960 960"
   width="48"
   version="1.1"
   id="svg13502"
   sodipodi:docname="financial-report.svg"
   inkscape:version="1.2.2 (732a01da63, 2022-12-09)"
   xmlns:inkscape="http://www.inkscape.org/namespaces/inkscape"
   xmlns:sodipodi="http://sodipodi.sourceforge.net/DTD/sodipodi-0.dtd"
   xmlns="http://www.w3.org/2000/svg"
   xmlns:svg="http://www.w3.org/2000/svg">
  <defs
     id="defs13506" />
  <sodipodi:namedview
     id="namedview13504"
     pagecolor="#ffffff"
     bordercolor="#000000"
     borderopacity="0.25"
     inkscape:showpageshadow="2"
     inkscape:pageopacity="0.0"
     inkscape:pagecheckerboard="0"
     inkscape:deskcolor="#d1d1d1"
     showgrid="false"
     inkscape:zoom="10.770833"
     inkscape:cx="23.767892"
     inkscape:cy="24.046422"
     inkscape:window-width="1366"
     inkscape:window-height="697"
     inkscape:window-x="-8"
     inkscape:window-y="-8"
     inkscape:window-maximized="1"
     inkscape:current-layer="svg13502" />
  <path
     d="M450-241v25q0 6 4.5 10.5T465-201h30q6 0 10.5-4.5T510-216v-25h60q12.75 0 21.375-8.625T600-271v-130q0-12.75-8.625-21.375T570-431H420v-70h150q12.75 0 21.375-8.675 8.625-8.676 8.625-21.5 0-12.825-8.625-21.325T570-561h-60v-25q0-6-4.5-10.5T495-601h-30q-6 0-10.5 4.5T450-586v25h-60q-12.75 0-21.375 8.625T360-531v130q0 12.75 8.625 21.375T390-371h150v70H390q-12.75 0-21.375 8.675-8.625 8.676-8.625 21.5 0 12.825 8.625 21.325T390-241h60ZM220-80q-24 0-42-18t-18-42v-680q0-24 18-42t42-18h361l219 219v521q0 24-18 42t-42 18H220Zm334-740v156q0 12.75 8.625 21.375T584-634h156L554-820Z"
     id="path13500"
     style="fill:black" />
</svg>
