<?xml version="1.0" encoding="UTF-8" standalone="no"?>
<!-- Created with Inkscape (http://www.inkscape.org/) -->

<svg
   version="1.1"
   id="svg1154"
   width="700"
   height="700"
   viewBox="0 0 700 700"
   sodipodi:docname="read-all.svg"
   inkscape:version="1.2.2 (732a01da63, 2022-12-09)"
   xmlns:inkscape="http://www.inkscape.org/namespaces/inkscape"
   xmlns:sodipodi="http://sodipodi.sourceforge.net/DTD/sodipodi-0.dtd"
   xmlns="http://www.w3.org/2000/svg"
   xmlns:svg="http://www.w3.org/2000/svg">
  <defs
     id="defs1158" />
  <sodipodi:namedview
     id="namedview1156"
     pagecolor="#ffffff"
     bordercolor="#000000"
     borderopacity="0.25"
     inkscape:showpageshadow="2"
     inkscape:pageopacity="0.0"
     inkscape:pagecheckerboard="0"
     inkscape:deskcolor="#d1d1d1"
     showgrid="false"
     inkscape:zoom="0.73857143"
     inkscape:cx="329.69052"
     inkscape:cy="622.82398"
     inkscape:window-width="1366"
     inkscape:window-height="697"
     inkscape:window-x="-8"
     inkscape:window-y="-8"
     inkscape:window-maximized="1"
     inkscape:current-layer="g1160" />
  <g
     inkscape:groupmode="layer"
     inkscape:label="Image"
     id="g1160">
    <path
       style="fill:#ff6600"
       d="M 331.35505,432.99743 C 320.61273,430.77567 319.32529,429.63365 259,368.81476 c -39.50267,-39.8259 -58.11797,-59.27635 -59.47436,-62.14262 -1.40833,-2.97603 -1.9817,-6.32231 -2,-11.67214 -0.0218,-6.37126 0.3799,-8.18983 2.66902,-12.08364 5.64197,-9.59704 13.34953,-14.24563 23.80534,-14.35751 11.88211,-0.12714 10.76686,-1.03497 64.25611,52.30539 l 48.75612,48.62039 119.24388,-119.20771 C 586.75582,119.8168 579.14547,126.77308 591.43152,126.71922 606.47137,126.6533 618.25,138.323 618.25,153.28968 c 0,12.74067 8.5588,3.42725 -134.03134,145.84868 C 371.74164,411.4823 353.83542,428.97712 349.5,430.76182 c -6.2014,2.55283 -12.72495,3.35659 -18.14495,2.23561 z M 208,430.30087 c -3.86097,-1.32237 -12.77719,-9.79601 -62.78768,-59.67105 -46.744314,-46.61773 -58.797954,-59.16831 -60.864325,-63.37365 -11.057932,-22.50432 11.896599,-46.21488 35.440255,-36.60751 4.80591,1.96113 119.37534,115.97964 122.4401,121.85134 3.11191,5.96202 3.594,16.85251 1.0051,22.70516 C 237.17309,428.9056 222.40297,435.23384 208,430.30087 Z M 327.32423,318.36246 C 317.07604,314.73112 309.68188,303.90363 309.66259,292.5 309.6424,280.56615 307.15481,283.43568 385.79011,204.68377 425.23055,165.18485 459.3,131.80706 461.5,130.51092 c 5.87125,-3.45909 14.20482,-4.73383 20.41538,-3.12283 17.31394,4.49118 25.9151,22.98114 18.04598,38.79352 -1.48636,2.9867 -24.55444,26.71711 -74.80522,76.953 -69.04984,69.02938 -72.9434,72.73961 -78.44365,74.75 -6.65631,2.43294 -13.40154,2.59919 -19.38826,0.47785 z"
       id="path2424"
       sodipodi:nodetypes="ssssssscssssssssssssssssssssss" />
  </g>
</svg>
